<svg id="Layer_1" data-name="Layer 1" xmlns="http://www.w3.org/2000/svg" viewBox="0 0 1080 1080"><defs><style>.cls-1{fill:#7c78b7;}</style></defs><title>icones</title><path class="cls-1" d="M435.52,674.62H377V420.73h89a116.69,116.69,0,0,1,35,4.94c62.27,19.61,56.94,79.47,56.88,80.08-1.32,22.44-9.93,40.86-25.59,54.61-32.17,28.25-83.72,28.37-96.78,27.91ZM382.62,669h47.3v-86.7l3,.21c.6,0,61.2,3.92,95.71-26.4,14.48-12.73,22.45-29.83,23.69-50.84.23-2.39,4.86-56.07-53-74.29A111,111,0,0,0,466,426.32H382.62Z"/><path class="cls-1" d="M453.42,542.42a89.22,89.22,0,0,1-19.28-2.08l-2.15-.52V464.69l2.38-.37c25.45-3.91,44.1-.5,55.43,10.15,12.39,11.64,11.11,27.47,11.05,28.14-.85,13.65-6,24.06-15.15,30.85C476.05,540.58,463.65,542.42,453.42,542.42Zm-15.83-7.09c7.09,1.3,30.15,4.44,44.8-6.39,7.8-5.76,12.13-14.76,12.88-26.76,0-.21,1.06-13.95-9.36-23.69-9.67-9.05-25.92-12.06-48.32-9Z"/><path class="cls-1" d="M617.7,675.82c-16.67,0-37.77-3.27-63.45-13.2l-2.34-.91,11.7-43.9,3,1.25c13.8,5.82,51.8,18.06,61.89,5l.25-.28s3.15-3.23,2.45-6.78c-.59-3-3.88-5.87-9.5-8.27-4.55-1.13-58-15.22-64.13-54.81-2-13,2.08-27.13,11.24-38.74,15.69-19.89,51.52-48.3,115.21-15.1l2,1-10.83,42.94-3.27-2.11c-.37-.23-36.62-23.32-52.47-6.55-.11.13-3.14,3.49-2,7.55,1.55,5.27,9.71,10.08,23,13.55,14,3.67,26.28,10.53,35.49,19.83,15.51,15.69,20.35,34.4,14,54.12a64.37,64.37,0,0,1-43.66,41.73A106.62,106.62,0,0,1,617.7,675.82Zm-59.09-17.53c41,15.36,69.41,13.14,86.13,8.49a58.69,58.69,0,0,0,39.83-38.06c5.75-17.85,1.49-34.16-12.66-48.46-8.5-8.6-19.89-14.94-32.93-18.35-15.74-4.12-24.81-10-27-17.48-2-7.14,3.06-12.65,3.28-12.88,16-17,46.19-2,56.25,3.7l7.87-31.2c-58.88-29.76-91.81-3.73-106.27,14.61-8.19,10.39-11.88,22.93-10.1,34.42,5.67,36.75,59.6,50.15,60.14,50.28l.43.14c7.68,3.23,12.06,7.43,13,12.49,1.14,6-3,10.71-3.88,11.63-13,16.52-53.89,2.25-65.41-2.21Z"/><path class="cls-1" d="M725.71,785.94,723,772.79c-7.61-36.56-13.19-42.14-49.76-49.76l-13.15-2.74,13.15-2.73c36.57-7.62,42.15-13.2,49.76-49.76l2.74-13.15,2.74,13.15c7.62,36.56,13.2,42.14,49.76,49.76l13.15,2.73L778.21,723c-36.56,7.62-42.15,13.2-49.76,49.76ZM686.3,720.29c25,6.43,33,14.46,39.41,39.41,6.43-25,14.46-33,39.41-39.41-25-6.42-33-14.45-39.41-39.4C719.29,705.84,711.25,713.87,686.3,720.29Z"/><path class="cls-1" d="M689.43,745H371.08a56.21,56.21,0,0,1-56.14-56.15V417.21a56.21,56.21,0,0,1,56.14-56.15H689.43a56.22,56.22,0,0,1,56.15,56.15V688.88A55.8,55.8,0,0,1,743.21,705l-7.14-2.16a48.21,48.21,0,0,0,2-14V417.21a48.74,48.74,0,0,0-48.69-48.69H371.08a48.74,48.74,0,0,0-48.68,48.69V688.88a48.74,48.74,0,0,0,48.68,48.69H689.43a48,48,0,0,0,20.7-4.65l3.19,6.74A55.36,55.36,0,0,1,689.43,745Z"/></svg>