<svg id="Layer_1" data-name="Layer 1" xmlns="http://www.w3.org/2000/svg" viewBox="0 0 1080 1080"><defs><style>.cls-1{fill:#7c78b7;}</style></defs><title>icones</title><path class="cls-1" d="M630.94,729.61H309.71A79.67,79.67,0,0,1,230.14,650V343.69a79.66,79.66,0,0,1,79.57-79.56H748.63a79.65,79.65,0,0,1,79.57,79.56V459.78h-7.48V343.69a72.17,72.17,0,0,0-72.09-72.08H309.71a72.17,72.17,0,0,0-72.09,72.08V650a72.17,72.17,0,0,0,72.09,72.08H630.94Z"/><rect class="cls-1" x="233.88" y="659.55" width="397.06" height="3.74"/><path class="cls-1" d="M532.88,717.17a22,22,0,1,1,22-22A22.06,22.06,0,0,1,532.88,717.17Zm0-40.33a18.3,18.3,0,1,0,18.3,18.29A18.31,18.31,0,0,0,532.88,676.84Z"/><polygon class="cls-1" points="605.97 807.48 461.9 807.48 461.9 725.86 469.38 725.86 469.38 800 598.49 800 598.49 725.86 605.97 725.86 605.97 807.48"/><path class="cls-1" d="M673.59,831.22H381.44a15.62,15.62,0,1,1,0-31.22H636.28v7.48H381.44a8.14,8.14,0,1,0,0,16.26H673.59Z"/><path class="cls-1" d="M274.74,663.44H271V339.58A33.6,33.6,0,0,1,304.56,306h445.5a33.61,33.61,0,0,1,33.57,33.57V459h-3.74V339.58a29.86,29.86,0,0,0-29.83-29.83H304.56a29.86,29.86,0,0,0-29.82,29.83Z"/><path class="cls-1" d="M815.84,831.22h-140a48.69,48.69,0,0,1-48.64-48.63V503.84a48.69,48.69,0,0,1,48.64-48.63h140a48.78,48.78,0,0,1,9.34.9h0a48.77,48.77,0,0,1,39.3,47.73V782.59A48.69,48.69,0,0,1,815.84,831.22Zm-140-368.53a41.21,41.21,0,0,0-41.16,41.15V782.59a41.21,41.21,0,0,0,41.16,41.15h140A41.21,41.21,0,0,0,857,782.59V503.84a41.26,41.26,0,0,0-33.26-40.38h0a41,41,0,0,0-7.9-.77Z"/><path class="cls-1" d="M816.74,805.61H674.94a26.7,26.7,0,0,1-26.67-26.67V504.28a26.69,26.69,0,0,1,26.67-26.67h141.8a26.7,26.7,0,0,1,26.68,26.67V778.94A26.71,26.71,0,0,1,816.74,805.61ZM674.94,481.35A23,23,0,0,0,652,504.28V778.94a23,23,0,0,0,22.93,22.93h141.8a23,23,0,0,0,22.93-22.93V504.28a23,23,0,0,0-22.93-22.93Z"/></svg>