<svg id="Layer_1" data-name="Layer 1" xmlns="http://www.w3.org/2000/svg" viewBox="0 0 1080 1080"><defs><style>.cls-1{fill:#7c78b7;}</style></defs><title>icones</title><polygon class="cls-1" points="878.84 726.68 830.63 726.68 830.63 688.03 798.8 688.03 798.8 680.19 838.47 680.19 838.47 718.84 871 718.84 871 648.52 798.8 648.52 798.8 646.72 794.88 646.72 794.88 640.68 878.84 640.68 878.84 726.68"/><polygon class="cls-1" points="801.54 919.85 676.11 919.85 676.11 873.36 713.89 873.36 713.89 687.6 639.65 687.6 639.65 679.76 721.73 679.76 721.73 881.2 683.95 881.2 683.95 912.01 793.7 912.01 793.7 882.92 754.23 882.92 754.23 680.19 798.8 680.19 798.8 688.03 762.07 688.03 762.07 875.08 801.54 875.08 801.54 919.85"/><polygon class="cls-1" points="643.58 726.68 597.12 726.68 597.12 640.68 798.8 640.68 798.8 648.52 604.96 648.52 604.96 718.84 635.74 718.84 635.74 683.68 643.58 683.68 643.58 726.68"/><path class="cls-1" d="M717.81,865.52H341.75a51,51,0,0,1-51-51V256.73a51,51,0,0,1,51-51h410a51,51,0,0,1,51,51V644.6h-7.84V256.73a43.17,43.17,0,0,0-43.12-43.12h-410a43.17,43.17,0,0,0-43.12,43.12V814.56a43.16,43.16,0,0,0,43.12,43.12H717.81Z"/><path class="cls-1" d="M758.68,865.05l-1.06-7.77a43.28,43.28,0,0,0,37.26-42.72V688.45h7.84V814.56A51.15,51.15,0,0,1,758.68,865.05Z"/><rect class="cls-1" x="794.88" y="684.11" width="7.84" height="4.34"/><rect class="cls-1" x="349.61" y="274.08" width="388.36" height="3.92"/><rect class="cls-1" x="352.56" y="307.87" width="388.37" height="3.92"/><rect class="cls-1" x="352.56" y="341.66" width="388.37" height="3.92"/><rect class="cls-1" x="352.56" y="528.92" width="388.37" height="3.92"/><rect class="cls-1" x="352.56" y="569.67" width="388.37" height="3.92"/><rect class="cls-1" x="352.56" y="606.16" width="388.37" height="3.92"/><rect class="cls-1" x="351.57" y="642.65" width="388.36" height="3.92"/><rect class="cls-1" x="635.73" y="679.76" width="81.41" height="7.84"/><rect class="cls-1" x="351.57" y="679.15" width="249.47" height="3.92"/><rect class="cls-1" x="639.66" y="715.64" width="78.16" height="3.92"/><rect class="cls-1" x="351.57" y="715.64" width="249.47" height="3.92"/><rect class="cls-1" x="351.57" y="752.13" width="366.24" height="3.92"/><rect class="cls-1" x="351.57" y="788.62" width="366.24" height="3.92"/><path class="cls-1" d="M726.5,500.61H367a16.4,16.4,0,0,1-16.38-16.39V387.86A16.4,16.4,0,0,1,367,371.47H726.5a16.4,16.4,0,0,1,16.38,16.39v96.36A16.4,16.4,0,0,1,726.5,500.61ZM367,375.39a12.48,12.48,0,0,0-12.46,12.47v96.36A12.48,12.48,0,0,0,367,496.69H726.5A12.48,12.48,0,0,0,739,484.22V387.86a12.48,12.48,0,0,0-12.46-12.47Z"/><path class="cls-1" d="M614.61,500.61c-.61,0-2.46,0-120.79-62.47C483,441.58,400.31,476.93,357,495.61l-1.56-3.6c5.25-2.27,128.76-55.54,138.09-57.87l.73-.18.66.34c46.31,24.45,116.52,61.26,120.13,62.45l-.47,1.42Z"/><polygon class="cls-1" points="554 469.25 553.15 465.43 659.68 441.64 741.39 461.63 740.46 465.44 659.64 445.67 554 469.25"/><path class="cls-1" d="M411.22,437a21.17,21.17,0,1,1,21.17-21.17A21.19,21.19,0,0,1,411.22,437Zm0-38.42a17.25,17.25,0,1,0,17.25,17.25A17.27,17.27,0,0,0,411.22,398.58Z"/></svg>