<svg id="Layer_1" data-name="Layer 1" xmlns="http://www.w3.org/2000/svg" viewBox="0 0 1080 1080"><defs><style>.cls-1{fill:#7c78b7;}</style></defs><title>icones</title><path class="cls-1" d="M353.91,428.93l-3.24-15.56c-10.86-52.15-18.82-60.11-71-71l-15.56-3.24,15.56-3.25c52.15-10.86,60.11-18.82,71-71l3.24-15.55,3.24,15.55c10.87,52.15,18.83,60.11,71,71l15.56,3.25-15.56,3.24c-52.14,10.86-60.1,18.82-71,71Zm-58.47-89.77c37.83,9.35,49.11,20.64,58.47,58.47,9.36-37.83,20.65-49.12,58.47-58.47-37.82-9.36-49.11-20.65-58.47-58.48C344.55,318.51,333.27,329.8,295.44,339.16Z"/><path class="cls-1" d="M545.67,621l-3.24-15.56c-10.87-52.15-18.82-60.11-71-71l-15.56-3.24L471.46,528c52.15-10.86,60.1-18.83,71-71l3.24-15.56L548.91,457c10.86,52.14,18.82,60.11,71,71l15.55,3.24-15.55,3.24c-52.15,10.86-60.11,18.82-71,71ZM487.2,531.22c37.82,9.36,49.11,20.64,58.47,58.47,9.35-37.83,20.64-49.11,58.47-58.47-37.83-9.36-49.12-20.64-58.47-58.47C536.31,510.58,525,521.86,487.2,531.22Z"/><path class="cls-1" d="M353.91,816.3l-3.24-15.55c-10.86-52.15-18.82-60.11-71-71l-15.56-3.24,15.56-3.25c52.15-10.86,60.11-18.82,71-71l3.24-15.55,3.24,15.55c10.87,52.15,18.83,60.11,71,71l15.56,3.25-15.56,3.24c-52.14,10.86-60.1,18.82-71,71Zm-58.47-89.76c37.83,9.35,49.11,20.64,58.47,58.47,9.36-37.83,20.65-49.12,58.47-58.47-37.82-9.36-49.11-20.65-58.47-58.48C344.55,705.89,333.27,717.18,295.44,726.54Z"/><path class="cls-1" d="M726.09,428.93l-3.24-15.56c-10.86-52.15-18.82-60.11-71-71l-15.56-3.24,15.56-3.25c52.15-10.86,60.11-18.82,71-71l3.24-15.55,3.24,15.55c10.86,52.15,18.82,60.11,71,71l15.56,3.25L800.3,342.4c-52.15,10.86-60.11,18.82-71,71Zm-58.47-89.77c37.83,9.35,49.11,20.64,58.47,58.47,9.36-37.83,20.64-49.12,58.47-58.47-37.83-9.36-49.11-20.65-58.47-58.47C716.73,318.51,705.45,329.8,667.62,339.16Z"/><path class="cls-1" d="M707.81,816.3l-3.24-15.55c-10.87-52.15-18.83-60.11-71-71L618,726.54l15.55-3.25c52.15-10.86,60.11-18.82,71-71l3.24-15.55L711,652.32c10.87,52.15,18.83,60.11,71,71l15.55,3.25L782,729.78c-52.15,10.86-60.11,18.82-71,71Zm-58.48-89.76c37.83,9.35,49.12,20.64,58.48,58.47,9.35-37.83,20.64-49.12,58.47-58.47-37.83-9.36-49.12-20.65-58.47-58.48C698.45,705.89,687.16,717.18,649.33,726.54Z"/><path class="cls-1" d="M356.56,549.12a10.5,10.5,0,1,1,10.49-10.49A10.5,10.5,0,0,1,356.56,549.12Zm0-17.68a7.19,7.19,0,1,0,7.18,7.19A7.2,7.2,0,0,0,356.56,531.44Z"/><path class="cls-1" d="M728.48,549.12A10.5,10.5,0,1,1,739,538.63,10.5,10.5,0,0,1,728.48,549.12Zm0-17.68a7.19,7.19,0,1,0,7.18,7.19A7.2,7.2,0,0,0,728.48,531.44Z"/><path class="cls-1" d="M531.63,725.74a10.5,10.5,0,1,1,10.5-10.5A10.51,10.51,0,0,1,531.63,725.74Zm0-17.68a7.19,7.19,0,1,0,7.19,7.18A7.2,7.2,0,0,0,531.63,708.06Z"/><path class="cls-1" d="M543.08,349.65a10.5,10.5,0,1,1,10.49-10.49A10.51,10.51,0,0,1,543.08,349.65Zm0-17.68a7.19,7.19,0,1,0,7.18,7.19A7.19,7.19,0,0,0,543.08,332Z"/></svg>