<svg id="Layer_1" data-name="Layer 1" xmlns="http://www.w3.org/2000/svg" viewBox="0 0 1080 1080"><defs><style>.cls-1{fill:#7c78b7;}</style></defs><title>icones</title><path class="cls-1" d="M619.14,873.27H469.26V834l-49.37-87.26L545.51,537.18l123,210.65-49.33,90.64ZM477.5,865H610.91V836.37L659,748,545.41,553.35l-116,193.48,48.08,85Z"/><path class="cls-1" d="M626.64,893.38H456.81a14.18,14.18,0,1,1,0-28.35H626.64a14.18,14.18,0,0,1,0,28.35ZM456.81,873.27a5.94,5.94,0,0,0,0,11.88H626.64a5.94,5.94,0,0,0,0-11.88Z"/><path class="cls-1" d="M545.46,697.27a19.34,19.34,0,1,1,19.34-19.34A19.37,19.37,0,0,1,545.46,697.27Zm0-34.56a15.22,15.22,0,1,0,15.23,15.22A15.24,15.24,0,0,0,545.46,662.71Z"/><rect class="cls-1" x="543.41" y="545.26" width="4.12" height="115.38"/><path class="cls-1" d="M301.29,726.52H221.1V646.33h80.19Zm-72-8.23h63.73V654.57H229.33Z"/><path class="cls-1" d="M584.29,407H504.11V326.78h80.18Zm-71.95-8.23h63.72V335H512.34Z"/><path class="cls-1" d="M870.65,726.52H790.47V646.33h80.18Zm-71.95-8.23h63.72V654.57H798.7Z"/><path class="cls-1" d="M771.32,403.57A36.7,36.7,0,1,1,808,366.88,36.73,36.73,0,0,1,771.32,403.57Zm0-65.15a28.46,28.46,0,1,0,28.46,28.46A28.49,28.49,0,0,0,771.32,338.42Z"/><path class="cls-1" d="M319.11,403.57a36.7,36.7,0,1,1,36.7-36.69A36.73,36.73,0,0,1,319.11,403.57Zm0-65.15a28.46,28.46,0,1,0,28.47,28.46A28.49,28.49,0,0,0,319.11,338.42Z"/><rect class="cls-1" x="576.69" y="364.82" width="158.56" height="4.12"/><rect class="cls-1" x="348.2" y="364.82" width="156.54" height="4.12"/><path class="cls-1" d="M259.14,650.55c0-.64-2.8-65.15,25.56-132.2,26.22-62,85.13-139,216.78-153.52l.45,4.09c-129.6,14.33-187.57,90-213.38,150.89-28.05,66.21-25.33,129.9-25.3,130.54Z"/><path class="cls-1" d="M832.52,650.55l-4.11-.2c0-.64,2.74-64.33-25.3-130.54-25.81-60.93-83.78-136.56-213.39-150.89l.45-4.09C721.83,379.38,780.73,456.34,807,518.35,835.32,585.4,832.55,649.91,832.52,650.55Z"/></svg>