<svg id="Layer_1" data-name="Layer 1" xmlns="http://www.w3.org/2000/svg" viewBox="0 0 1080 1080"><defs><style>.cls-1{fill:#7c78b7;}</style></defs><title>icones</title><path class="cls-1" d="M637,522a270.83,270.83,0,0,1-31.06-1.81L595.56,519l8.55-5.93c.26-.18,26.18-18.49,45.92-63.62.2-.6,7.53-20.88,23.73-36.15C688.92,399,710.65,395,730.4,402.73s32.65,25.32,34,45.93c1.59,24.06-13.63,43.77-45.23,58.56C717.63,507.94,686.51,522,637,522Zm-20.89-8.7c59.87,4.8,99.4-13,99.81-13.23,28.36-13.28,42.06-30.41,40.71-50.92-1.16-17.55-12.29-32.55-29.05-39.14-16.92-6.65-35.45-3.2-48.38,9-14.78,13.93-21.76,33.13-21.82,33.33C643,485.23,625.72,504.37,616.06,513.33Z"/><path class="cls-1" d="M761.86,437.58l-5.36-5.73L968.42,233.38c10.16-9.2,11.91-17.85,5.23-25.73a17.94,17.94,0,0,0-5.94-4.64c-11-5.25-22.12,4-26.37,8.21-2.74,2.71-5.49,5.4-8.33,8L729.32,407.66,724,401.9,927.68,213.48c2.77-2.56,5.46-5.18,8.13-7.83,5.43-5.39,19.74-17.13,35.28-9.73a26.09,26.09,0,0,1,8.55,6.65c4.5,5.32,12.94,19.52-5.9,36.59Z"/><path class="cls-1" d="M658.33,519.08l-1.21-3.74a3.92,3.92,0,0,0,2.61-2.4c2.27-5.52-2.88-17.56-5.06-21.74-6.1-14.77.16-46.95.44-48.32l3.84.76c-.06.33-6.3,32.39-.72,45.9.81,1.54,8.49,16.7,5.14,24.89A7.93,7.93,0,0,1,658.33,519.08Z"/><path class="cls-1" d="M791,749.42H329.29a66.06,66.06,0,0,1-66-66V353.24a66.06,66.06,0,0,1,66-66H791a65.89,65.89,0,0,1,44,16.81l-5.24,5.84A58,58,0,0,0,791,295.1H329.29a58.2,58.2,0,0,0-58.14,58.14V683.43a58.2,58.2,0,0,0,58.14,58.14H791a58.2,58.2,0,0,0,58.14-58.14V353.24a59.06,59.06,0,0,0-.39-6.79l7.8-.9a67.83,67.83,0,0,1,.44,7.69V683.43A66.06,66.06,0,0,1,791,749.42Z"/><rect class="cls-1" x="267.22" y="679.61" width="585.84" height="3.92"/><path class="cls-1" d="M563.82,737a22,22,0,1,1,22-22A22,22,0,0,1,563.82,737Zm0-40a18,18,0,1,0,18,18A18.06,18.06,0,0,0,563.82,697Z"/><polygon class="cls-1" points="636.54 826.67 493.19 826.67 493.19 745.5 501.04 745.5 501.04 818.82 628.69 818.82 628.69 745.5 636.54 745.5 636.54 826.67"/><path class="cls-1" d="M705.75,850.23H413.14a15.71,15.71,0,1,1,0-31.41H705.75a15.71,15.71,0,0,1,0,31.41ZM413.14,826.67a7.86,7.86,0,1,0,0,15.71H705.75a7.86,7.86,0,0,0,0-15.71Z"/><rect class="cls-1" x="808.74" y="386.46" width="3.92" height="297.11"/><path class="cls-1" d="M307.86,683.57h-3.93V362.31a33.45,33.45,0,0,1,33.4-33.41H779.26a33.4,33.4,0,0,1,21,7.44l-2.47,3.05a29.49,29.49,0,0,0-18.49-6.56H337.33a29.51,29.51,0,0,0-29.47,29.48Z"/><path class="cls-1" d="M448.16,619a86.44,86.44,0,0,1-25.48-3.92l1.15-3.76c71.3,21.88,118.64-59.44,119.12-60.26,24.31-43.32,63.45-34.76,63.84-34.67l-.89,3.83c-1.49-.35-36.7-7.92-59.54,32.77C545.93,553.78,507.94,619,448.16,619Z"/></svg>