<svg id="Layer_1" data-name="Layer 1" xmlns="http://www.w3.org/2000/svg" viewBox="0 0 1080 1080"><defs><style>.cls-1{fill:#e4e3e6;}</style></defs><title>icones</title><path class="cls-1" d="M423.35,252.73c-94.38,0-171.18,76.8-171.18,171.18v237c0,94.38,76.8,171.18,171.18,171.18h237c94.38,0,171.18-76.8,171.18-171.18v-237c0-94.38-76.8-171.18-171.18-171.18Zm0,26.34h237A144.65,144.65,0,0,1,805.21,423.91v237A144.66,144.66,0,0,1,660.36,805.77h-237A144.66,144.66,0,0,1,278.5,660.92v-237A144.65,144.65,0,0,1,423.35,279.07Zm276.51,79a26.34,26.34,0,1,0,26.34,26.34A26.33,26.33,0,0,0,699.86,358.07Zm-158,39.5C462,397.57,397,462.58,397,542.42s65,144.84,144.84,144.84,144.85-65,144.85-144.84S621.69,397.57,541.85,397.57Zm0,26.34a118.51,118.51,0,1,1-118.5,118.51A118.31,118.31,0,0,1,541.85,423.91Z"/></svg>